<svg width="256" height="58" viewBox="0 0 256 58" fill="none" xmlns="http://www.w3.org/2000/svg">
<g filter="url(#filter0_d_207446_2560)">
<rect x="5" y="5" width="246" height="48" rx="10" fill="#E7E7E7"/>
<rect x="5" y="5" width="246" height="48" rx="10" stroke="#A8A8A8" stroke-dasharray="2 4"/>
<path d="M82.9922 35.5H81.4609L75.2344 25.9062H75.1719C75.1875 26.1615 75.2057 26.4531 75.2266 26.7812C75.2474 27.1042 75.263 27.4505 75.2734 27.8203C75.2891 28.1849 75.2969 28.5573 75.2969 28.9375V35.5H74.0625V24.0781H75.5859L81.7891 33.6406H81.8438C81.8333 33.4583 81.8203 33.2005 81.8047 32.8672C81.7891 32.5286 81.7734 32.1667 81.7578 31.7812C81.7474 31.3906 81.7422 31.0286 81.7422 30.6953V24.0781H82.9922V35.5ZM93.2969 31.2031C93.2969 31.9062 93.2057 32.5339 93.0234 33.0859C92.8411 33.638 92.5781 34.1042 92.2344 34.4844C91.8906 34.8646 91.474 35.1562 90.9844 35.3594C90.5 35.5573 89.9505 35.6562 89.3359 35.6562C88.763 35.6562 88.237 35.5573 87.7578 35.3594C87.2839 35.1562 86.8724 34.8646 86.5234 34.4844C86.1797 34.1042 85.9115 33.638 85.7188 33.0859C85.5312 32.5339 85.4375 31.9062 85.4375 31.2031C85.4375 30.2656 85.5964 29.4688 85.9141 28.8125C86.2318 28.151 86.6849 27.6484 87.2734 27.3047C87.8672 26.9557 88.5729 26.7812 89.3906 26.7812C90.1719 26.7812 90.8542 26.9557 91.4375 27.3047C92.026 27.6536 92.4818 28.1589 92.8047 28.8203C93.1328 29.4766 93.2969 30.2708 93.2969 31.2031ZM86.7812 31.2031C86.7812 31.8906 86.8724 32.487 87.0547 32.9922C87.237 33.4974 87.5182 33.888 87.8984 34.1641C88.2786 34.4401 88.7682 34.5781 89.3672 34.5781C89.9609 34.5781 90.4479 34.4401 90.8281 34.1641C91.2135 33.888 91.4974 33.4974 91.6797 32.9922C91.862 32.487 91.9531 31.8906 91.9531 31.2031C91.9531 30.5208 91.862 29.9323 91.6797 29.4375C91.4974 28.9375 91.2161 28.5521 90.8359 28.2812C90.4557 28.0104 89.9635 27.875 89.3594 27.875C88.4688 27.875 87.8151 28.1693 87.3984 28.7578C86.987 29.3464 86.7812 30.1615 86.7812 31.2031ZM102.461 34.5938C102.674 34.5938 102.893 34.5755 103.117 34.5391C103.341 34.5026 103.523 34.4583 103.664 34.4062V35.4141C103.513 35.4818 103.302 35.5391 103.031 35.5859C102.766 35.6328 102.505 35.6562 102.25 35.6562C101.797 35.6562 101.385 35.5781 101.016 35.4219C100.646 35.2604 100.349 34.9896 100.125 34.6094C99.9062 34.2292 99.7969 33.7031 99.7969 33.0312V27.9531H98.5781V27.3203L99.8047 26.8125L100.32 24.9531H101.102V26.9375H103.609V27.9531H101.102V32.9922C101.102 33.5286 101.224 33.9297 101.469 34.1953C101.719 34.4609 102.049 34.5938 102.461 34.5938ZM108.602 26.7969C109.622 26.7969 110.38 27.026 110.875 27.4844C111.37 27.9427 111.617 28.6745 111.617 29.6797V35.5H110.672L110.422 34.2344H110.359C110.12 34.5469 109.87 34.8099 109.609 35.0234C109.349 35.2318 109.047 35.3906 108.703 35.5C108.365 35.6042 107.948 35.6562 107.453 35.6562C106.932 35.6562 106.469 35.5651 106.062 35.3828C105.661 35.2005 105.344 34.9245 105.109 34.5547C104.88 34.1849 104.766 33.7161 104.766 33.1484C104.766 32.2943 105.104 31.638 105.781 31.1797C106.458 30.7214 107.49 30.4714 108.875 30.4297L110.352 30.3672V29.8438C110.352 29.1042 110.193 28.5859 109.875 28.2891C109.557 27.9922 109.109 27.8438 108.531 27.8438C108.083 27.8438 107.656 27.9089 107.25 28.0391C106.844 28.1693 106.458 28.3229 106.094 28.5L105.695 27.5156C106.081 27.3177 106.523 27.1484 107.023 27.0078C107.523 26.8672 108.049 26.7969 108.602 26.7969ZM110.336 31.2812L109.031 31.3359C107.964 31.3776 107.211 31.5521 106.773 31.8594C106.336 32.1667 106.117 32.6016 106.117 33.1641C106.117 33.6536 106.266 34.0156 106.562 34.25C106.859 34.4844 107.253 34.6016 107.742 34.6016C108.503 34.6016 109.125 34.3906 109.609 33.9688C110.094 33.5469 110.336 32.9141 110.336 32.0703V31.2812ZM119.828 33.1562C119.828 33.7031 119.69 34.1641 119.414 34.5391C119.143 34.9089 118.753 35.1875 118.242 35.375C117.737 35.5625 117.133 35.6562 116.43 35.6562C115.831 35.6562 115.312 35.6094 114.875 35.5156C114.438 35.4219 114.055 35.2891 113.727 35.1172V33.9219C114.076 34.0938 114.492 34.25 114.977 34.3906C115.461 34.5312 115.956 34.6016 116.461 34.6016C117.201 34.6016 117.737 34.4818 118.07 34.2422C118.404 34.0026 118.57 33.6771 118.57 33.2656C118.57 33.0312 118.503 32.8255 118.367 32.6484C118.237 32.4661 118.016 32.2917 117.703 32.125C117.391 31.9531 116.958 31.7656 116.406 31.5625C115.859 31.3542 115.385 31.1484 114.984 30.9453C114.589 30.737 114.281 30.4844 114.062 30.1875C113.849 29.8906 113.742 29.5052 113.742 29.0312C113.742 28.3073 114.034 27.7526 114.617 27.3672C115.206 26.9766 115.977 26.7812 116.93 26.7812C117.445 26.7812 117.927 26.8333 118.375 26.9375C118.828 27.0365 119.25 27.1719 119.641 27.3438L119.203 28.3828C118.849 28.2318 118.471 28.1042 118.07 28C117.669 27.8958 117.26 27.8438 116.844 27.8438C116.245 27.8438 115.784 27.9427 115.461 28.1406C115.143 28.3385 114.984 28.6094 114.984 28.9531C114.984 29.2188 115.057 29.4375 115.203 29.6094C115.354 29.7812 115.594 29.9427 115.922 30.0938C116.25 30.2448 116.682 30.4219 117.219 30.625C117.755 30.8229 118.219 31.0286 118.609 31.2422C119 31.4505 119.299 31.7057 119.508 32.0078C119.721 32.3047 119.828 32.6875 119.828 33.1562ZM123.203 23.3438V29.6562C123.203 29.8646 123.195 30.1198 123.18 30.4219C123.164 30.7188 123.151 30.9818 123.141 31.2109H123.195C123.305 31.0755 123.464 30.875 123.672 30.6094C123.885 30.3438 124.065 30.1302 124.211 29.9688L127.055 26.9375H128.578L125.133 30.5938L128.828 35.5H127.266L124.242 31.4453L123.203 32.3984V35.5H121.914V23.3438H123.203ZM135.859 33.1562C135.859 33.7031 135.721 34.1641 135.445 34.5391C135.174 34.9089 134.784 35.1875 134.273 35.375C133.768 35.5625 133.164 35.6562 132.461 35.6562C131.862 35.6562 131.344 35.6094 130.906 35.5156C130.469 35.4219 130.086 35.2891 129.758 35.1172V33.9219C130.107 34.0938 130.523 34.25 131.008 34.3906C131.492 34.5312 131.987 34.6016 132.492 34.6016C133.232 34.6016 133.768 34.4818 134.102 34.2422C134.435 34.0026 134.602 33.6771 134.602 33.2656C134.602 33.0312 134.534 32.8255 134.398 32.6484C134.268 32.4661 134.047 32.2917 133.734 32.125C133.422 31.9531 132.99 31.7656 132.438 31.5625C131.891 31.3542 131.417 31.1484 131.016 30.9453C130.62 30.737 130.312 30.4844 130.094 30.1875C129.88 29.8906 129.773 29.5052 129.773 29.0312C129.773 28.3073 130.065 27.7526 130.648 27.3672C131.237 26.9766 132.008 26.7812 132.961 26.7812C133.477 26.7812 133.958 26.8333 134.406 26.9375C134.859 27.0365 135.281 27.1719 135.672 27.3438L135.234 28.3828C134.88 28.2318 134.503 28.1042 134.102 28C133.701 27.8958 133.292 27.8438 132.875 27.8438C132.276 27.8438 131.815 27.9427 131.492 28.1406C131.174 28.3385 131.016 28.6094 131.016 28.9531C131.016 29.2188 131.089 29.4375 131.234 29.6094C131.385 29.7812 131.625 29.9427 131.953 30.0938C132.281 30.2448 132.714 30.4219 133.25 30.625C133.786 30.8229 134.25 31.0286 134.641 31.2422C135.031 31.4505 135.331 31.7057 135.539 32.0078C135.753 32.3047 135.859 32.6875 135.859 33.1562ZM145.805 35.5H144.469V25.25H140.875V24.0781H149.383V25.25H145.805V35.5ZM158.297 31.2031C158.297 31.9062 158.206 32.5339 158.023 33.0859C157.841 33.638 157.578 34.1042 157.234 34.4844C156.891 34.8646 156.474 35.1562 155.984 35.3594C155.5 35.5573 154.951 35.6562 154.336 35.6562C153.763 35.6562 153.237 35.5573 152.758 35.3594C152.284 35.1562 151.872 34.8646 151.523 34.4844C151.18 34.1042 150.911 33.638 150.719 33.0859C150.531 32.5339 150.438 31.9062 150.438 31.2031C150.438 30.2656 150.596 29.4688 150.914 28.8125C151.232 28.151 151.685 27.6484 152.273 27.3047C152.867 26.9557 153.573 26.7812 154.391 26.7812C155.172 26.7812 155.854 26.9557 156.438 27.3047C157.026 27.6536 157.482 28.1589 157.805 28.8203C158.133 29.4766 158.297 30.2708 158.297 31.2031ZM151.781 31.2031C151.781 31.8906 151.872 32.487 152.055 32.9922C152.237 33.4974 152.518 33.888 152.898 34.1641C153.279 34.4401 153.768 34.5781 154.367 34.5781C154.961 34.5781 155.448 34.4401 155.828 34.1641C156.214 33.888 156.497 33.4974 156.68 32.9922C156.862 32.487 156.953 31.8906 156.953 31.2031C156.953 30.5208 156.862 29.9323 156.68 29.4375C156.497 28.9375 156.216 28.5521 155.836 28.2812C155.456 28.0104 154.964 27.875 154.359 27.875C153.469 27.875 152.815 28.1693 152.398 28.7578C151.987 29.3464 151.781 30.1615 151.781 31.2031ZM167.742 35.6562C166.659 35.6562 165.799 35.2865 165.164 34.5469C164.534 33.8073 164.219 32.7083 164.219 31.25C164.219 29.776 164.542 28.6641 165.188 27.9141C165.833 27.1589 166.693 26.7812 167.766 26.7812C168.219 26.7812 168.615 26.8411 168.953 26.9609C169.292 27.0807 169.583 27.2422 169.828 27.4453C170.073 27.6432 170.279 27.8698 170.445 28.125H170.539C170.518 27.9635 170.497 27.7422 170.477 27.4609C170.456 27.1797 170.445 26.9505 170.445 26.7734V23.3438H171.742V35.5H170.695L170.5 34.2812H170.445C170.284 34.5365 170.078 34.7682 169.828 34.9766C169.583 35.1849 169.289 35.3516 168.945 35.4766C168.607 35.5964 168.206 35.6562 167.742 35.6562ZM167.945 34.5781C168.862 34.5781 169.51 34.3177 169.891 33.7969C170.271 33.276 170.461 32.5026 170.461 31.4766V31.2422C170.461 30.1536 170.279 29.3177 169.914 28.7344C169.555 28.151 168.898 27.8594 167.945 27.8594C167.148 27.8594 166.552 28.1667 166.156 28.7812C165.76 29.3906 165.562 30.224 165.562 31.2812C165.562 32.3333 165.758 33.1458 166.148 33.7188C166.544 34.2917 167.143 34.5781 167.945 34.5781ZM181.875 31.2031C181.875 31.9062 181.784 32.5339 181.602 33.0859C181.419 33.638 181.156 34.1042 180.812 34.4844C180.469 34.8646 180.052 35.1562 179.562 35.3594C179.078 35.5573 178.529 35.6562 177.914 35.6562C177.341 35.6562 176.815 35.5573 176.336 35.3594C175.862 35.1562 175.451 34.8646 175.102 34.4844C174.758 34.1042 174.49 33.638 174.297 33.0859C174.109 32.5339 174.016 31.9062 174.016 31.2031C174.016 30.2656 174.174 29.4688 174.492 28.8125C174.81 28.151 175.263 27.6484 175.852 27.3047C176.445 26.9557 177.151 26.7812 177.969 26.7812C178.75 26.7812 179.432 26.9557 180.016 27.3047C180.604 27.6536 181.06 28.1589 181.383 28.8203C181.711 29.4766 181.875 30.2708 181.875 31.2031ZM175.359 31.2031C175.359 31.8906 175.451 32.487 175.633 32.9922C175.815 33.4974 176.096 33.888 176.477 34.1641C176.857 34.4401 177.346 34.5781 177.945 34.5781C178.539 34.5781 179.026 34.4401 179.406 34.1641C179.792 33.888 180.076 33.4974 180.258 32.9922C180.44 32.487 180.531 31.8906 180.531 31.2031C180.531 30.5208 180.44 29.9323 180.258 29.4375C180.076 28.9375 179.794 28.5521 179.414 28.2812C179.034 28.0104 178.542 27.875 177.938 27.875C177.047 27.875 176.393 28.1693 175.977 28.7578C175.565 29.3464 175.359 30.1615 175.359 31.2031Z" fill="#A8A8A8"/>
</g>
<defs>
<filter id="filter0_d_207446_2560" x="0.5" y="0.5" width="255" height="57" filterUnits="userSpaceOnUse" color-interpolation-filters="sRGB">
<feFlood flood-opacity="0" result="BackgroundImageFix"/>
<feColorMatrix in="SourceAlpha" type="matrix" values="0 0 0 0 0 0 0 0 0 0 0 0 0 0 0 0 0 0 127 0" result="hardAlpha"/>
<feOffset/>
<feGaussianBlur stdDeviation="2"/>
<feColorMatrix type="matrix" values="0 0 0 0 0 0 0 0 0 0 0 0 0 0 0 0 0 0 0.16 0"/>
<feBlend mode="normal" in2="BackgroundImageFix" result="effect1_dropShadow_207446_2560"/>
<feBlend mode="normal" in="SourceGraphic" in2="effect1_dropShadow_207446_2560" result="shape"/>
</filter>
</defs>
</svg>
