<svg width="43" height="42" viewBox="0 0 43 42" fill="none" xmlns="http://www.w3.org/2000/svg">
<rect x="0.5" width="42" height="42" rx="21" fill="white"/>
<circle cx="21.5" cy="21" r="20" fill="#462F8A" stroke="white" stroke-width="2"/>
<path d="M13.3166 16.2727H14.5779L17.5439 23.517H17.6461L20.612 16.2727H21.8734V25H20.8848V18.3693H20.7995L18.0723 25H17.1177L14.3904 18.3693H14.3052V25H13.3166V16.2727ZM23.9924 25V16.2727H27.0435C27.6515 16.2727 28.1529 16.3778 28.5478 16.5881C28.9426 16.7955 29.2367 17.0753 29.4299 17.4276C29.623 17.777 29.7196 18.1648 29.7196 18.5909C29.7196 18.9659 29.6529 19.2756 29.5194 19.5199C29.3887 19.7642 29.2154 19.9574 28.9995 20.0994C28.7864 20.2415 28.5549 20.3466 28.3049 20.4148V20.5C28.5719 20.517 28.8404 20.6108 29.1103 20.7812C29.3801 20.9517 29.606 21.196 29.7878 21.5142C29.9696 21.8324 30.0605 22.2216 30.0605 22.6818C30.0605 23.1193 29.9611 23.5128 29.7623 23.8622C29.5634 24.2116 29.2495 24.4886 28.8205 24.6932C28.3915 24.8977 27.8333 25 27.1458 25H23.9924ZM25.0492 24.0625H27.1458C27.8361 24.0625 28.3262 23.929 28.6159 23.6619C28.9086 23.392 29.0549 23.0653 29.0549 22.6818C29.0549 22.3864 28.9796 22.1136 28.829 21.8636C28.6784 21.6108 28.464 21.4091 28.1855 21.2585C27.9071 21.1051 27.5776 21.0284 27.1969 21.0284H25.0492V24.0625ZM25.0492 20.108H27.0094C27.3276 20.108 27.6145 20.0455 27.8702 19.9205C28.1287 19.7955 28.3333 19.6193 28.4838 19.392C28.6373 19.1648 28.714 18.8977 28.714 18.5909C28.714 18.2074 28.5804 17.8821 28.3134 17.6151C28.0463 17.3452 27.623 17.2102 27.0435 17.2102H25.0492V20.108Z" fill="white"/>
</svg>
